<?xml version="1.0" encoding="UTF-8" standalone="no"?>
<!-- Created with Inkscape (http://www.inkscape.org/) -->

<svg
   width="8.198in"
   height="5.5312495in"
   viewBox="0 0 208.22919 140.49373"
   version="1.1"
   id="svg1"
   xml:space="preserve"
   inkscape:version="1.3.2 (091e20ef0f, 2023-11-25)"
   sodipodi:docname="thonny-interface.svg"
   xmlns:inkscape="http://www.inkscape.org/namespaces/inkscape"
   xmlns:sodipodi="http://sodipodi.sourceforge.net/DTD/sodipodi-0.dtd"
   xmlns:xlink="http://www.w3.org/1999/xlink"
   xmlns="http://www.w3.org/2000/svg"
   xmlns:svg="http://www.w3.org/2000/svg"><sodipodi:namedview
     id="namedview1"
     pagecolor="#ffffff"
     bordercolor="#666666"
     borderopacity="1.0"
     inkscape:showpageshadow="2"
     inkscape:pageopacity="0.0"
     inkscape:pagecheckerboard="0"
     inkscape:deskcolor="#d1d1d1"
     inkscape:document-units="mm"
     inkscape:zoom="0.44853175"
     inkscape:cx="295.4083"
     inkscape:cy="265.31009"
     inkscape:window-width="1918"
     inkscape:window-height="1048"
     inkscape:window-x="0"
     inkscape:window-y="30"
     inkscape:window-maximized="1"
     inkscape:current-layer="layer1" /><defs
     id="defs1" /><g
     inkscape:label="Layer 1"
     inkscape:groupmode="layer"
     id="layer1"
     transform="translate(-26.286461,-78.404816)"><image
       width="157.42708"
       height="140.49374"
       preserveAspectRatio="none"
       xlink:href="thonny-interface-raw.png"
       id="image1"
       x="26.286461"
       y="78.404816" /><path
       style="font-weight:300;font-size:56.4444px;line-height:1.25;font-family:'Source Sans 3';-inkscape-font-specification:'Source Sans 3 Light';letter-spacing:0px;word-spacing:0px;stroke-width:0.306798"
       d="m 188.01352,167.06642 h 1.91911 c 4.17689,0 6.26533,-2.04911 6.26533,-9.71429 0,-5.61609 -0.45156,-10.32145 -0.45156,-15.55806 0,-3.11161 0.90311,-6.14733 4.85422,-6.14733 v -2.42857 c -3.95111,0 -4.85422,-3.03573 -4.85422,-5.99555 0,-5.38839 0.45156,-10.09375 0.45156,-15.70984 0,-7.66518 -2.08844,-9.71429 -6.26533,-9.71429 h -1.91911 v 2.2009 h 1.74978 c 3.44311,0 4.34622,2.50446 4.34622,7.81697 0,4.93303 -0.33867,9.10715 -0.33867,14.57144 0,4.47768 0.62089,6.98216 2.87866,7.89287 v 0.30357 c -2.25777,0.91071 -2.87866,3.56697 -2.87866,7.89287 0,5.46428 0.33867,9.63841 0.33867,14.57144 0,5.31251 -0.90311,7.81697 -4.34622,7.81697 h -1.74978 z"
       id="text1"
       aria-label="}" /><path
       style="font-weight:300;font-size:56.4444px;line-height:1.25;font-family:'Source Sans 3';-inkscape-font-specification:'Source Sans 3 Light';letter-spacing:0px;word-spacing:0px;stroke-width:0.254795"
       d="m 188.01352,216.54311 h 1.91911 c 4.17689,0 6.26533,-1.41333 6.26533,-6.70022 0,-3.87357 -0.45156,-7.11899 -0.45156,-10.73083 0,-2.14616 0.90311,-4.23998 4.85422,-4.23998 v -1.67505 c -3.95111,0 -4.85422,-2.09383 -4.85422,-4.1353 0,-3.71652 0.45156,-6.96194 0.45156,-10.83552 0,-5.28688 -2.08844,-6.70021 -6.26533,-6.70021 h -1.91911 v 1.51802 h 1.74978 c 3.44311,0 4.34622,1.72739 4.34622,5.39158 0,3.40245 -0.33867,6.28146 -0.33867,10.05033 0,3.08838 0.62089,4.81579 2.87866,5.44393 v 0.20938 c -2.25777,0.62815 -2.87866,2.46024 -2.87866,5.44394 0,3.76886 0.33867,6.64788 0.33867,10.05033 0,3.66418 -0.90311,5.39158 -4.34622,5.39158 h -1.74978 z"
       id="text1-5"
       aria-label="}" /><text
       xml:space="preserve"
       style="font-style:normal;font-variant:normal;font-weight:normal;font-stretch:normal;font-size:9.87778px;line-height:1.25;font-family:Paladins;-inkscape-font-specification:Paladins;letter-spacing:0px;word-spacing:0px;fill:#000000;fill-opacity:1;stroke:none;stroke-width:0.264583"
       x="202.01778"
       y="138.20471"
       id="text2"><tspan
         sodipodi:role="line"
         id="tspan1"
         style="font-style:normal;font-variant:normal;font-weight:normal;font-stretch:normal;font-size:9.87778px;font-family:'Source Sans 3';-inkscape-font-specification:'Source Sans 3, ';stroke-width:0.264583"
         x="202.01778"
         y="138.20471">Editor</tspan></text><text
       xml:space="preserve"
       style="font-style:normal;font-variant:normal;font-weight:normal;font-stretch:normal;font-size:9.87778px;line-height:1.25;font-family:Paladins;-inkscape-font-specification:Paladins;letter-spacing:0px;word-spacing:0px;fill:#000000;fill-opacity:1;stroke:none;stroke-width:0.264583"
       x="201.76396"
       y="196.94518"
       id="text2-4"><tspan
         sodipodi:role="line"
         id="tspan1-5"
         style="font-style:normal;font-variant:normal;font-weight:normal;font-stretch:normal;font-size:9.87778px;font-family:'Source Sans 3';-inkscape-font-specification:'Source Sans 3, ';stroke-width:0.264583"
         x="201.76396"
         y="196.94518">Prompt</tspan></text></g></svg>
